-- Regenerated by /tmp/gen-song-tracks.js
-- Populates songs.midi_data with structured tracks JSON.

UPDATE songs SET midi_data = $$[{"hand":"right","notes":[{"note":60,"start":0,"duration":500,"velocity":84},{"note":60,"start":500,"duration":500,"velocity":84},{"note":67,"start":1000,"duration":500,"velocity":84},{"note":67,"start":1500,"duration":500,"velocity":84},{"note":69,"start":2000,"duration":500,"velocity":84},{"note":69,"start":2500,"duration":500,"velocity":84},{"note":67,"start":3000,"duration":1000,"velocity":84},{"note":65,"start":4000,"duration":500,"velocity":84},{"note":65,"start":4500,"duration":500,"velocity":84},{"note":64,"start":5000,"duration":500,"velocity":84},{"note":64,"start":5500,"duration":500,"velocity":84},{"note":62,"start":6000,"duration":500,"velocity":84},{"note":62,"start":6500,"duration":500,"velocity":84},{"note":60,"start":7000,"duration":1000,"velocity":84}]}]$$ WHERE title = '小星星' AND artist = '莫扎特';
UPDATE songs SET midi_data = $$[{"hand":"right","notes":[{"note":60,"start":0,"duration":600,"velocity":84},{"note":62,"start":600,"duration":600,"velocity":84},{"note":64,"start":1200,"duration":600,"velocity":84},{"note":60,"start":1800,"duration":600,"velocity":84},{"note":60,"start":2400,"duration":600,"velocity":84},{"note":62,"start":3000,"duration":600,"velocity":84},{"note":64,"start":3600,"duration":600,"velocity":84},{"note":60,"start":4200,"duration":600,"velocity":84},{"note":64,"start":4800,"duration":600,"velocity":84},{"note":65,"start":5400,"duration":600,"velocity":84},{"note":67,"start":6000,"duration":1200,"velocity":84},{"note":64,"start":7200,"duration":600,"velocity":84},{"note":65,"start":7800,"duration":600,"velocity":84},{"note":67,"start":8400,"duration":1200,"velocity":84},{"note":67,"start":9600,"duration":300,"velocity":84},{"note":69,"start":9900,"duration":300,"velocity":84},{"note":67,"start":10200,"duration":300,"velocity":84},{"note":65,"start":10500,"duration":300,"velocity":84},{"note":64,"start":10800,"duration":600,"velocity":84},{"note":60,"start":11400,"duration":600,"velocity":84},{"note":67,"start":12000,"duration":300,"velocity":84},{"note":69,"start":12300,"duration":300,"velocity":84},{"note":67,"start":12600,"duration":300,"velocity":84},{"note":65,"start":12900,"duration":300,"velocity":84},{"note":64,"start":13200,"duration":600,"velocity":84},{"note":60,"start":13800,"duration":600,"velocity":84},{"note":60,"start":14400,"duration":600,"velocity":84},{"note":67,"start":15000,"duration":600,"velocity":84},{"note":60,"start":15600,"duration":1200,"velocity":84},{"note":60,"start":16800,"duration":600,"velocity":84},{"note":67,"start":17400,"duration":600,"velocity":84},{"note":60,"start":18000,"duration":1200,"velocity":84}]}]$$ WHERE title = '两只老虎' AND artist = '传统';
UPDATE songs SET midi_data = $$[{"hand":"right","notes":[{"note":67,"start":0,"duration":450,"velocity":84},{"note":67,"start":450,"duration":150,"velocity":84},{"note":69,"start":600,"duration":600,"velocity":84},{"note":67,"start":1200,"duration":600,"velocity":84},{"note":72,"start":1800,"duration":600,"velocity":84},{"note":71,"start":2400,"duration":1200,"velocity":84},{"note":67,"start":3600,"duration":450,"velocity":84},{"note":67,"start":4050,"duration":150,"velocity":84},{"note":69,"start":4200,"duration":600,"velocity":84},{"note":67,"start":4800,"duration":600,"velocity":84},{"note":74,"start":5400,"duration":600,"velocity":84},{"note":72,"start":6000,"duration":1200,"velocity":84},{"note":67,"start":7200,"duration":450,"velocity":84},{"note":67,"start":7650,"duration":150,"velocity":84},{"note":79,"start":7800,"duration":600,"velocity":84},{"note":76,"start":8400,"duration":600,"velocity":84},{"note":72,"start":9000,"duration":600,"velocity":84},{"note":71,"start":9600,"duration":600,"velocity":84},{"note":69,"start":10200,"duration":1200,"velocity":84},{"note":77,"start":11400,"duration":450,"velocity":84},{"note":77,"start":11850,"duration":150,"velocity":84},{"note":76,"start":12000,"duration":600,"velocity":84},{"note":72,"start":12600,"duration":600,"velocity":84},{"note":74,"start":13200,"duration":600,"velocity":84},{"note":72,"start":13800,"duration":1200,"velocity":84}]}]$$ WHERE title = '生日快乐' AND artist = '传统';
UPDATE songs SET midi_data = $$[{"hand":"right","notes":[{"note":64,"start":0,"duration":556,"velocity":84},{"note":64,"start":556,"duration":556,"velocity":84},{"note":65,"start":1112,"duration":556,"velocity":84},{"note":67,"start":1668,"duration":556,"velocity":84},{"note":67,"start":2224,"duration":556,"velocity":84},{"note":65,"start":2780,"duration":556,"velocity":84},{"note":64,"start":3336,"duration":556,"velocity":84},{"note":62,"start":3892,"duration":556,"velocity":84},{"note":60,"start":4448,"duration":556,"velocity":84},{"note":60,"start":5004,"duration":556,"velocity":84},{"note":62,"start":5560,"duration":556,"velocity":84},{"note":64,"start":6116,"duration":556,"velocity":84},{"note":64,"start":6672,"duration":833,"velocity":84},{"note":62,"start":7505,"duration":278,"velocity":84},{"note":62,"start":7783,"duration":1111,"velocity":84},{"note":64,"start":8894,"duration":556,"velocity":84},{"note":64,"start":9450,"duration":556,"velocity":84},{"note":65,"start":10006,"duration":556,"velocity":84},{"note":67,"start":10562,"duration":556,"velocity":84},{"note":67,"start":11118,"duration":556,"velocity":84},{"note":65,"start":11674,"duration":556,"velocity":84},{"note":64,"start":12230,"duration":556,"velocity":84},{"note":62,"start":12786,"duration":556,"velocity":84},{"note":60,"start":13342,"duration":556,"velocity":84},{"note":60,"start":13898,"duration":556,"velocity":84},{"note":62,"start":14454,"duration":556,"velocity":84},{"note":64,"start":15010,"duration":556,"velocity":84},{"note":62,"start":15566,"duration":833,"velocity":84},{"note":60,"start":16399,"duration":278,"velocity":84},{"note":60,"start":16677,"duration":1111,"velocity":84}]},{"hand":"left","notes":[{"note":48,"start":0,"duration":1111,"velocity":84},{"note":43,"start":1111,"duration":1111,"velocity":84},{"note":48,"start":2222,"duration":1111,"velocity":84},{"note":43,"start":3333,"duration":1111,"velocity":84},{"note":53,"start":4444,"duration":1111,"velocity":84},{"note":48,"start":5555,"duration":1111,"velocity":84},{"note":43,"start":6666,"duration":1111,"velocity":84},{"note":43,"start":7777,"duration":1111,"velocity":84},{"note":48,"start":8888,"duration":1111,"velocity":84},{"note":43,"start":9999,"duration":1111,"velocity":84},{"note":48,"start":11110,"duration":1111,"velocity":84},{"note":43,"start":12221,"duration":1111,"velocity":84},{"note":53,"start":13332,"duration":1111,"velocity":84},{"note":48,"start":14443,"duration":1111,"velocity":84},{"note":43,"start":15554,"duration":1111,"velocity":84},{"note":48,"start":16665,"duration":1111,"velocity":84}]}]$$ WHERE title = '欢乐颂' AND artist = '贝多芬';
UPDATE songs SET midi_data = $$[{"hand":"right","notes":[{"note":62,"start":0,"duration":833,"velocity":84},{"note":66,"start":833,"duration":833,"velocity":84},{"note":69,"start":1666,"duration":833,"velocity":84},{"note":66,"start":2499,"duration":833,"velocity":84},{"note":71,"start":3332,"duration":833,"velocity":84},{"note":69,"start":4165,"duration":833,"velocity":84},{"note":66,"start":4998,"duration":833,"velocity":84},{"note":62,"start":5831,"duration":833,"velocity":84},{"note":67,"start":6664,"duration":833,"velocity":84},{"note":66,"start":7497,"duration":833,"velocity":84},{"note":64,"start":8330,"duration":833,"velocity":84},{"note":62,"start":9163,"duration":833,"velocity":84},{"note":67,"start":9996,"duration":833,"velocity":84},{"note":69,"start":10829,"duration":833,"velocity":84},{"note":71,"start":11662,"duration":833,"velocity":84},{"note":69,"start":12495,"duration":833,"velocity":84},{"note":74,"start":13328,"duration":833,"velocity":84},{"note":69,"start":14161,"duration":833,"velocity":84},{"note":66,"start":14994,"duration":833,"velocity":84},{"note":69,"start":15827,"duration":833,"velocity":84},{"note":71,"start":16660,"duration":833,"velocity":84},{"note":66,"start":17493,"duration":833,"velocity":84},{"note":62,"start":18326,"duration":833,"velocity":84},{"note":66,"start":19159,"duration":833,"velocity":84},{"note":67,"start":19992,"duration":833,"velocity":84},{"note":62,"start":20825,"duration":833,"velocity":84},{"note":64,"start":21658,"duration":833,"velocity":84},{"note":66,"start":22491,"duration":833,"velocity":84},{"note":67,"start":23324,"duration":833,"velocity":84},{"note":69,"start":24157,"duration":833,"velocity":84},{"note":74,"start":24990,"duration":1667,"velocity":84}]},{"hand":"left","notes":[{"note":50,"start":0,"duration":1667,"velocity":84},{"note":45,"start":1667,"duration":1667,"velocity":84},{"note":47,"start":3334,"duration":1667,"velocity":84},{"note":42,"start":5001,"duration":1667,"velocity":84},{"note":43,"start":6668,"duration":1667,"velocity":84},{"note":50,"start":8335,"duration":1667,"velocity":84},{"note":43,"start":10002,"duration":1667,"velocity":84},{"note":45,"start":11669,"duration":1667,"velocity":84},{"note":50,"start":13336,"duration":1667,"velocity":84},{"note":45,"start":15003,"duration":1667,"velocity":84},{"note":47,"start":16670,"duration":1667,"velocity":84},{"note":42,"start":18337,"duration":1667,"velocity":84},{"note":43,"start":20004,"duration":1667,"velocity":84},{"note":50,"start":21671,"duration":1667,"velocity":84},{"note":45,"start":23338,"duration":1667,"velocity":84},{"note":50,"start":25005,"duration":1667,"velocity":84}]}]$$ WHERE title = '卡农' AND artist = '帕赫贝尔';
UPDATE songs SET midi_data = $$[{"hand":"right","notes":[{"note":76,"start":0,"duration":250,"velocity":84},{"note":75,"start":250,"duration":250,"velocity":84},{"note":76,"start":500,"duration":250,"velocity":84},{"note":75,"start":750,"duration":250,"velocity":84},{"note":76,"start":1000,"duration":250,"velocity":84},{"note":71,"start":1250,"duration":250,"velocity":84},{"note":74,"start":1500,"duration":250,"velocity":84},{"note":72,"start":1750,"duration":250,"velocity":84},{"note":69,"start":2000,"duration":500,"velocity":84},{"note":60,"start":2750,"duration":250,"velocity":84},{"note":64,"start":3000,"duration":250,"velocity":84},{"note":69,"start":3250,"duration":250,"velocity":84},{"note":71,"start":3500,"duration":500,"velocity":84},{"note":64,"start":4250,"duration":250,"velocity":84},{"note":68,"start":4500,"duration":250,"velocity":84},{"note":71,"start":4750,"duration":250,"velocity":84},{"note":72,"start":5000,"duration":500,"velocity":84},{"note":64,"start":5750,"duration":250,"velocity":84},{"note":76,"start":6000,"duration":250,"velocity":84},{"note":75,"start":6250,"duration":250,"velocity":84},{"note":76,"start":6500,"duration":250,"velocity":84},{"note":75,"start":6750,"duration":250,"velocity":84},{"note":76,"start":7000,"duration":250,"velocity":84},{"note":71,"start":7250,"duration":250,"velocity":84},{"note":74,"start":7500,"duration":250,"velocity":84},{"note":72,"start":7750,"duration":250,"velocity":84},{"note":69,"start":8000,"duration":750,"velocity":84}]},{"hand":"left","notes":[{"note":57,"start":0,"duration":1000,"velocity":84},{"note":52,"start":1000,"duration":1000,"velocity":84},{"note":57,"start":2000,"duration":1000,"velocity":84},{"note":52,"start":3000,"duration":1000,"velocity":84},{"note":56,"start":4000,"duration":1000,"velocity":84},{"note":52,"start":5000,"duration":1000,"velocity":84},{"note":57,"start":6000,"duration":1000,"velocity":84},{"note":52,"start":7000,"duration":1000,"velocity":84}]}]$$ WHERE title = '致爱丽丝' AND artist = '贝多芬';

SELECT id, title, artist, LENGTH(midi_data) AS midi_len FROM songs ORDER BY id;
